PathFileType	4	(X/Y/Z)	D:\TRACE\v60_Jaco2_6-2-23\BothDRS_Motion3_6-v60.trc
DataRate	CameraRate	NumFrames	NumMarkers	Units	OrigDataRate	OrigDataStartFrame	OrigNumFrames
100.00	100.00	      42	9	mm	100.00	4376	      7000
Frame#	Time	front left toe			Front right toe			aft left toe			aft right toe			Arm			FL body			FR body			AL Body			AR Body			
		X1	Y1	Z1	X2	Y2	Z2	X3	Y3	Z3	X4	Y4	Z4	X5	Y5	Z5	X6	Y6	Z6	X7	Y7	Z7	X8	Y8	Z8	X9	Y9	Z9	

4376	43.750	-116.22306	-8.03078	-296.81961	284.40021	117.05145	-274.54501	-95.44372	157.85590	334.10263	250.58089	34.05253	324.59039	94.86035	1046.20044	-710.97229	8.51930	472.12112	-457.61557	167.38802	472.86386	-454.88504	-3.91337	613.82892	475.68716	147.81017	605.65045	479.38516	
4377	43.760	-116.22889	-7.87101	-296.48022	283.84073	122.74717	-274.67194	-96.88613	163.24187	334.59683	250.62003	33.35591	324.73367	94.34432	1047.68079	-708.23138	7.59043	472.82632	-457.08505	166.61974	473.54633	-454.04495	-3.24179	613.11816	476.86707	148.11041	605.07977	480.21747	
4378	43.770	-116.15072	-7.57439	-296.16388	283.10483	124.32545	-273.90247	-97.77375	165.51453	335.71857	250.72701	32.85728	324.88928	94.03187	1049.40015	-705.77863	7.29688	473.54657	-455.86548	166.17108	474.40149	-453.27322	-2.73623	612.73511	478.07233	148.54150	604.65118	481.20618	
4379	43.780	-116.12323	-7.18724	-295.68738	281.92578	122.50395	-272.66971	-99.46856	165.54463	337.13080	250.79378	32.52682	325.20901	94.02702	1051.08179	-703.36761	6.78790	474.29886	-454.62006	165.82426	475.16824	-452.36896	-2.10965	612.30469	479.35516	149.51007	604.29419	482.31259	
4380	43.790	-115.77428	-6.88131	-295.71857	281.15637	119.12711	-271.69992	-101.63624	163.01947	338.88782	250.78696	32.30268	325.44131	93.99117	1052.59521	-700.88129	5.99628	475.30743	-453.76416	163.90237	476.66223	-451.25400	-0.86646	611.81689	480.74115	150.38156	603.75970	483.36023	
4381	43.800	-116.25640	-6.12287	-295.28427	280.23657	114.59737	-270.63123	-102.93226	159.08162	340.80191	250.74365	32.01316	325.66440	93.48932	1053.88440	-698.27734	6.03656	475.68634	-452.39386	163.80653	477.15240	-450.40387	-0.20170	611.36975	482.21762	150.97090	603.22314	484.57050	
4382	43.810	-116.36625	-5.70362	-295.07245	278.60495	108.56025	-270.04788	-104.39688	154.54803	342.70541	250.50726	31.41324	325.87790	92.91159	1055.13879	-695.83301	5.59141	476.57901	-451.01108	163.29443	478.17218	-449.16791	0.38407	610.77460	483.53433	151.98296	602.58179	485.82455	
4383	43.820	-116.43676	-5.33085	-294.51175	276.74255	101.47645	-270.09467	-105.39176	148.98550	344.52344	250.41911	30.77955	326.13217	92.58199	1056.42871	-693.29199	4.70056	477.64343	-450.38248	163.08311	478.57764	-448.31000	1.38884	610.11133	484.96906	152.85185	602.06891	487.11804	
4384	43.830	-116.51960	-5.05531	-294.23532	275.28458	93.13849	-269.58966	-105.44267	141.90904	346.28394	250.18127	30.47942	326.16440	92.63782	1057.74377	-690.71802	4.93883	477.98239	-448.55005	162.99466	478.94574	-447.09509	2.42556	609.46271	486.44775	153.78333	601.39825	488.25934	
4385	43.840	-116.69133	-4.69124	-293.88000	273.85248	82.96408	-269.25253	-105.81882	134.13982	348.08090	250.35956	30.04508	326.49036	92.53651	1058.83020	-688.09039	4.56769	478.48663	-447.31232	163.42648	479.11215	-446.29810	3.39898	609.07001	487.75757	154.37698	601.05249	489.42450	
4386	43.850	-116.94074	-4.25065	-293.59943	272.83655	72.48569	-268.53467	-106.70570	124.88611	349.90103	250.39865	29.59222	326.69937	92.70022	1059.83862	-685.50891	3.85927	479.05148	-446.37503	163.05952	479.76419	-445.16751	4.20930	608.49725	489.43848	155.72566	600.28979	490.69202	
4387	43.860	-117.14890	-3.75728	-293.32574	271.57523	61.20032	-267.19690	-107.14733	114.54382	351.90939	250.07591	28.71549	326.76773	93.14749	1060.63855	-683.06531	3.91206	479.26624	-444.60733	162.87775	480.21176	-444.23239	5.13518	607.53876	490.64902	156.46880	599.44800	491.92621	
4388	43.870	-117.44226	-3.32519	-293.09164	270.13586	48.93588	-265.24298	-107.00809	103.69433	354.10114	250.11060	28.57739	327.36499	92.92733	1061.59924	-680.72375	3.19791	479.96765	-443.79837	161.43073	480.84866	-443.01938	6.15289	606.76196	492.30133	157.59610	598.53436	493.28662	
4389	43.880	-117.76230	-2.94756	-292.95831	268.89902	36.58817	-263.40106	-107.08696	93.57355	356.59793	249.96056	28.00322	327.46002	93.20717	1062.16174	-678.47156	3.43050	480.33990	-441.97824	161.26054	481.13702	-441.85651	7.14096	605.82703	493.74152	158.39061	597.44971	494.56018	
4390	43.890	-118.03886	-2.51230	-292.76639	267.97714	26.10363	-261.54984	-106.25420	84.09512	358.81760	249.82733	27.29391	327.62418	93.43395	1063.07458	-676.07721	3.17990	480.85883	-440.83789	161.37202	481.36359	-440.66785	8.40257	605.03149	495.14734	159.23958	596.66095	495.73355	
4391	43.900	-118.30427	-1.93480	-292.55771	267.69266	16.38183	-260.00867	-105.18023	74.89064	360.81677	249.41483	26.86592	327.80945	93.95798	1063.75671	-673.91089	2.59667	481.30960	-439.54971	161.17609	481.44986	-439.49530	9.09069	604.57574	496.65506	160.64218	595.85083	497.11484	
4392	43.910	-118.53218	-1.47466	-292.19092	268.09335	7.44682	-258.25671	-104.19673	66.32367	362.68524	249.10883	26.59742	327.99268	94.24329	1064.74988	-671.59265	3.00457	481.59552	-438.26459	160.43530	482.41672	-438.38727	10.00305	603.98792	497.99872	161.51163	595.21002	498.37097	
4393	43.920	-118.71195	-1.06714	-291.87170	268.55231	4.15109	-259.03168	-103.58698	58.59991	364.37488	248.48901	25.93042	328.21024	95.00713	1065.45313	-669.35968	2.50641	482.37888	-437.27563	160.69299	482.26920	-437.31815	10.91878	603.11334	499.37997	162.44162	594.13904	499.64700	
4394	43.930	-118.81417	-0.65688	-291.52875	268.32477	1.59564	-258.87930	-103.17676	51.89085	366.26575	248.47050	25.23910	328.46677	95.98524	1066.01038	-667.35315	2.64648	482.88513	-435.58255	160.70840	483.04807	-436.26007	11.77378	602.03741	500.97430	163.48680	593.01447	500.92899	
4395	43.940	-119.07624	-0.00544	-291.16577	268.81964	3.41093	-259.21124	-102.24094	45.37679	367.34134	248.30328	24.70785	328.74399	96.41778	1067.23059	-665.17877	2.01027	484.40158	-434.88834	160.62469	484.20627	-435.07034	12.96852	601.08252	502.46826	164.08632	591.79724	501.97025	
4396	43.950	-119.23788	0.61184	-291.00684	268.32220	3.42377	-258.94711	-100.73600	38.50918	368.83124	248.11481	24.54937	328.94321	96.87451	1068.77673	-662.87775	2.21322	485.58951	-433.09225	160.11032	485.91010	-433.93707	13.73120	600.32794	504.23950	165.36353	591.10919	503.74887	
4397	43.960	-119.42120	1.49951	-290.81375	267.68759	3.48969	-258.86847	-100.37947	29.85683	368.84225	247.94051	24.40539	329.15982	96.52563	1070.80872	-660.04047	1.95454	487.08817	-432.00076	160.53877	486.82397	-432.53848	14.91222	600.03632	505.79742	166.10170	590.56635	505.27588	
4398	43.970	-119.76129	2.33127	-290.32001	267.78784	4.11617	-258.53308	-101.83195	26.92657	368.18381	247.68663	23.90113	329.43234	96.20329	1072.93994	-657.10345	2.01842	487.68777	-429.98141	160.45728	487.24451	-430.89987	16.01744	601.22003	507.58740	167.82034	591.40051	507.30212	
4399	43.980	-119.84928	3.33324	-289.92725	267.16449	3.66211	-258.10751	-102.57935	28.29696	369.54419	247.78688	24.49820	329.67459	95.53125	1075.04358	-654.36511	1.71864	487.99017	-428.10074	159.95399	487.19592	-429.43652	17.10241	603.86481	509.82025	169.03308	593.10834	508.68094	
4400	43.990	-118.08067	7.87918	-287.03070	266.76761	4.41733	-257.65741	-101.40072	27.65129	370.39224	246.14429	27.04128	332.53687	95.55771	1076.97607	-653.35443	1.51293	488.67410	-426.07669	159.22632	488.09451	-427.84293	17.96009	604.55688	511.36255	169.08617	593.56287	509.29807	
4401	44.000	-114.39893	11.73848	-282.29886	266.25403	4.64856	-257.75336	-101.52261	27.26325	370.66632	245.72183	31.06477	337.42545	96.15227	1078.09631	-652.17468	0.85700	490.34900	-424.55511	159.48682	489.14426	-426.22079	19.08944	604.39642	513.01440	169.89624	593.37891	510.96976	
4402	44.010	-110.99114	18.34997	-278.27725	265.58868	4.80435	-257.89261	-102.14500	26.36535	370.57797	244.35860	39.41410	339.80783	96.82553	1077.72473	-651.07355	0.88665	491.80026	-423.28006	158.80348	490.26477	-425.25778	20.35664	603.98334	514.69940	171.30756	592.27777	512.16754	
4403	44.020	-110.27980	30.47930	-277.66492	265.79877	5.39619	-257.25510	-102.93358	26.46539	371.07413	243.38327	48.16559	341.79388	97.57895	1076.83716	-649.46716	0.76830	492.62140	-421.75027	159.73048	490.92758	-423.97357	21.03850	603.33887	516.30841	171.96185	591.65887	514.23987	
4404	44.030	-111.15326	41.32395	-276.12674	265.84012	5.50360	-257.15268	-103.90999	26.85100	370.86774	245.01761	59.85529	341.69598	98.49057	1076.60205	-647.79816	1.00570	493.00916	-420.17249	159.80225	491.56433	-422.65292	21.32571	602.29950	517.92914	172.70786	590.73309	515.83282	
4405	44.040	-111.07230	53.44225	-274.79510	265.99777	5.88958	-256.63791	-104.13132	26.25469	371.11005	245.76445	69.84153	341.74606	98.45265	1077.21240	-646.04065	1.32044	493.50720	-418.89731	160.43532	491.39865	-421.13458	21.34356	601.40472	519.31787	172.55894	589.43451	517.18683	
4406	44.050	-111.39513	66.37275	-272.51443	265.75494	6.25780	-255.94397	-104.49554	25.35330	371.57251	250.36882	82.49171	343.75900	97.93784	1078.19629	-643.85455	2.10581	493.70703	-417.54944	160.74297	491.76599	-419.80960	21.43296	600.10754	520.97083	172.88017	588.16650	519.04797	
4407	44.060	-111.39322	78.95473	-269.71494	264.90512	6.36614	-256.10916	-104.94689	24.38084	371.79416	253.41833	93.39592	346.20471	98.32220	1079.17151	-641.37317	2.27433	494.09308	-416.82193	160.10028	492.26212	-418.31558	21.25658	598.41876	522.15186	172.68506	586.47076	520.43701	
4408	44.070	-110.89816	89.85571	-266.18872	264.46326	6.47603	-256.08722	-105.76103	23.94555	372.00745	256.60559	104.26169	349.44861	98.90206	1080.25269	-639.00177	2.66093	494.20963	-415.41492	160.45009	492.59131	-416.94485	21.18015	596.89349	523.56781	172.58363	584.96576	521.84991	
4409	44.080	-109.53141	99.85184	-262.63828	264.44418	6.92621	-255.51476	-105.85529	23.43899	372.27835	259.38062	113.50045	352.83936	99.88739	1081.56555	-636.60986	2.67620	494.51926	-414.36081	160.59795	492.47263	-415.75543	20.80286	595.62030	525.05396	172.19713	583.53802	523.49805	
4410	44.090	-108.44176	109.06764	-259.50116	264.12415	7.52325	-255.00739	-106.50657	23.12770	372.30670	261.86441	124.21500	356.55890	101.31985	1082.76318	-634.40326	3.36367	495.01309	-412.86734	161.23134	492.76123	-414.44440	20.67947	594.38794	526.37433	172.18120	582.19525	525.19373	
4411	44.100	-107.30010	117.18308	-256.21997	264.04010	7.81036	-254.76120	-105.90590	21.53897	372.88565	263.24429	132.19209	359.86771	102.20094	1083.41785	-632.69550	3.43924	495.57233	-411.45395	162.52505	493.00903	-412.92908	20.44068	593.05621	528.10834	172.12386	580.96661	526.71460	
4412	44.110	-106.42816	124.20992	-253.01047	263.68454	7.97299	-254.64102	-106.60098	21.29486	373.28131	264.52493	138.83829	363.15186	103.06647	1083.78137	-631.12292	3.53723	496.57816	-410.41980	162.89293	493.60019	-411.47125	20.21387	591.92719	529.77863	171.79797	579.63245	528.42365	
4413	44.120	-106.24239	130.50377	-249.48854	263.06073	8.48612	-254.04460	-107.65571	20.99369	373.60193	265.79843	143.04982	366.76624	103.36493	1083.99573	-629.51971	4.20127	497.08325	-408.65012	162.32574	494.36429	-409.62613	19.87001	590.91217	531.29401	171.45662	578.43280	530.28912	
4414	44.130	-106.09090	134.94798	-246.28783	262.62173	9.26005	-253.57726	-108.34455	20.84623	373.70239	267.50812	144.53792	370.63782	103.79134	1084.45557	-628.11084	4.86123	497.88644	-407.01288	162.95558	495.17343	-408.10333	19.50392	589.70850	532.89063	171.08496	577.29791	531.72473	
4415	44.140	-106.09064	135.57433	-242.14030	262.37112	9.65269	-253.16245	-107.76951	19.52275	374.06561	269.84674	143.21741	375.48315	104.31099	1085.04395	-626.11426	5.46480	498.75284	-405.73639	164.19263	495.56598	-406.72208	18.97761	589.04431	534.48969	170.44148	576.32574	533.73517	
4416	44.150	-105.46079	131.88354	-237.92586	261.86935	9.86944	-253.09492	-108.76617	19.45988	374.36618	271.74960	139.35234	380.16464	104.27207	1086.19836	-624.59570	5.80909	499.54788	-404.23804	164.02530	496.45367	-405.00766	18.66857	588.26636	536.13947	170.42126	575.55060	535.48175	
4417	44.160	-104.29156	126.98504	-233.08104	261.83981	10.57955	-252.47852	-109.26770	18.75920	374.59839	272.89212	134.65039	384.64789	105.32800	1087.24866	-622.72711	6.20087	499.98578	-402.86533	164.18033	497.00476	-403.23083	18.56643	587.69025	537.48419	169.43764	574.73840	537.06079	
